<svg
                  width="40"
                  height="40"
                  viewBox="0 0 59 59"
                  fill="none"
                  xmlns="http://www.w3.org/2000/svg"
                >
                  <rect
                    opacity="0.25"
                    x="1.05469"
                    y="1.19874"
                    width="56.2584"
                    height="56.2584"
                    rx="28.1292"
                    stroke="white"
                    stroke-width="1.48048"
                  ></rect>
                  <path
                    fill-rule="evenodd"
                    clip-rule="evenodd"
                    d="M24.003 38.9513H19.5615V25.627H24.003V38.9513Z"
                    fill="white"
                  ></path>
                  <path
                    fill-rule="evenodd"
                    clip-rule="evenodd"
                    d="M21.769 22.6656H21.7438C20.4184 22.6656 19.5615 21.6781 19.5615 20.4441C19.5615 19.1839 20.4445 18.2241 21.7951 18.2241C23.1456 18.2241 23.9773 19.1839 24.003 20.4441C24.003 21.6781 23.1456 22.6656 21.769 22.6656Z"
                    fill="white"
                  ></path>
                  <path
                    fill-rule="evenodd"
                    clip-rule="evenodd"
                    d="M40.2861 38.951H35.9217V31.9862C35.9217 30.2367 35.2901 29.043 33.7102 29.043C32.5044 29.043 31.7861 29.8478 31.4707 30.625C31.3553 30.9036 31.327 31.2917 31.327 31.6808V38.9513H26.9619C26.9619 38.9513 27.0194 27.1546 26.9619 25.933H31.327V27.7769C31.9063 26.8905 32.9437 25.627 35.261 25.627C38.1331 25.627 40.2863 27.488 40.2863 31.4867L40.2861 38.951Z"
                    fill="white"
                  ></path>
                </svg>