<svg width="20" height="20" viewBox="0 0 23 24" fill="none" xmlns="http://www.w3.org/2000/svg"><path fill-rule="evenodd" clip-rule="evenodd" d="M9.32687 18.0887C13.6855 18.0887 17.2188 14.5554 17.2188 10.1967C17.2188 5.83813 13.6855 2.30478 9.32687 2.30478C4.96826 2.30478 1.4349 5.83813 1.4349 10.1967C1.4349 14.5554 4.96826 18.0887 9.32687 18.0887ZM18.6537 10.1967C18.6537 15.3478 14.478 19.5236 9.32687 19.5236C4.17578 19.5236 0 15.3478 0 10.1967C0 5.04565 4.17578 0.869873 9.32687 0.869873C14.478 0.869873 18.6537 5.04565 18.6537 10.1967Z" fill="#919EAB"></path><path d="M14.8425 17.7187C14.8848 17.7761 14.9319 17.8311 14.9839 17.883L20.5089 23.408C21.0693 23.9684 21.9778 23.9684 22.5382 23.408C23.0985 22.8477 23.0985 21.9392 22.5382 21.3788L17.0131 15.8537C16.9612 15.8018 16.9062 15.7547 16.8489 15.7123C16.286 16.4787 15.6088 17.1559 14.8425 17.7187Z" fill="#919EAB"></path></svg>