<svg width="75" height="32" viewBox="0 0 75 32" fill="none" xmlns="http://www.w3.org/2000/svg"><g clip-path="url(#clip0_4664_26233)"><path d="M8.38537 20.4656C8.3478 20.0868 8.1866 19.7926 7.90174 19.5829C7.61689 19.3731 7.2303 19.2683 6.74198 19.2683C6.41017 19.2683 6.13001 19.3152 5.90151 19.4091C5.673 19.4999 5.4977 19.6267 5.37562 19.7894C5.25667 19.9522 5.1972 20.1369 5.1972 20.3435C5.19094 20.5157 5.22693 20.6659 5.30519 20.7943C5.38658 20.9226 5.4977 21.0337 5.63856 21.1276C5.77942 21.2184 5.9422 21.2982 6.12688 21.3671C6.31157 21.4328 6.50878 21.4892 6.7185 21.5361L7.58246 21.7427C8.00191 21.8366 8.38693 21.9619 8.73752 22.1184C9.08811 22.2749 9.39175 22.4674 9.64843 22.6959C9.90511 22.9244 10.1039 23.1936 10.2447 23.5035C10.3887 23.8134 10.4623 24.1687 10.4654 24.5694C10.4623 25.1578 10.312 25.6681 10.0147 26.1001C9.72042 26.5289 9.29471 26.8623 8.73752 27.1002C8.18347 27.3349 7.51515 27.4523 6.73259 27.4523C5.95628 27.4523 5.28015 27.3334 4.70418 27.0955C4.13134 26.8576 3.68372 26.5054 3.3613 26.039C3.04201 25.5695 2.87454 24.9888 2.85889 24.297H4.82626C4.84817 24.6194 4.94052 24.8886 5.10329 25.1046C5.26919 25.3175 5.48988 25.4787 5.76534 25.5883C6.04393 25.6947 6.35852 25.7479 6.70911 25.7479C7.05344 25.7479 7.35238 25.6978 7.60593 25.5976C7.86261 25.4975 8.06139 25.3582 8.20225 25.1798C8.34311 25.0013 8.41354 24.7963 8.41354 24.5647C8.41354 24.3487 8.34937 24.1671 8.22103 24.02C8.09582 23.8729 7.91113 23.7477 7.66697 23.6444C7.42594 23.5411 7.13013 23.4472 6.77954 23.3626L5.73247 23.0997C4.92173 22.9025 4.2816 22.5942 3.81206 22.1747C3.34252 21.7553 3.10931 21.1902 3.11244 20.4797C3.10931 19.8974 3.26426 19.3888 3.57729 18.9537C3.89344 18.5186 4.32698 18.1789 4.87791 17.9348C5.42884 17.6906 6.05489 17.5685 6.75607 17.5685C7.46977 17.5685 8.09269 17.6906 8.62483 17.9348C9.16011 18.1789 9.57643 18.5186 9.87381 18.9537C10.1712 19.3888 10.3246 19.8927 10.334 20.4656H8.38537ZM11.7007 27.3162V17.7H13.7338V21.6676H17.8611V17.7H19.8895V27.3162H17.8611V23.3439H13.7338V27.3162H11.7007ZM30.2703 22.5081C30.2703 23.5567 30.0715 24.4488 29.6739 25.1845C29.2795 25.9201 28.7411 26.4819 28.0587 26.8701C27.3795 27.2551 26.6157 27.4476 25.7674 27.4476C24.9128 27.4476 24.1459 27.2536 23.4666 26.8654C22.7874 26.4773 22.2505 25.9154 21.8561 25.1798C21.4617 24.4441 21.2645 23.5536 21.2645 22.5081C21.2645 21.4594 21.4617 20.5673 21.8561 19.8317C22.2505 19.0961 22.7874 18.5358 23.4666 18.1508C24.1459 17.7626 24.9128 17.5685 25.7674 17.5685C26.6157 17.5685 27.3795 17.7626 28.0587 18.1508C28.7411 18.5358 29.2795 19.0961 29.6739 19.8317C30.0715 20.5673 30.2703 21.4594 30.2703 22.5081ZM28.209 22.5081C28.209 21.8288 28.1072 21.256 27.9038 20.7896C27.7034 20.3232 27.4202 19.9694 27.0539 19.7284C26.6877 19.4874 26.2588 19.3669 25.7674 19.3669C25.2759 19.3669 24.8471 19.4874 24.4808 19.7284C24.1146 19.9694 23.8297 20.3232 23.6263 20.7896C23.4259 21.256 23.3258 21.8288 23.3258 22.5081C23.3258 23.1873 23.4259 23.7602 23.6263 24.2266C23.8297 24.693 24.1146 25.0467 24.4808 25.2878C24.8471 25.5288 25.2759 25.6493 25.7674 25.6493C26.2588 25.6493 26.6877 25.5288 27.0539 25.2878C27.4202 25.0467 27.7034 24.693 27.9038 24.2266C28.1072 23.7602 28.209 23.1873 28.209 22.5081ZM31.6441 27.3162V17.7H35.438C36.1673 17.7 36.7887 17.8393 37.302 18.1179C37.8154 18.3934 38.2067 18.7768 38.4759 19.2683C38.7482 19.7566 38.8844 20.32 38.8844 20.9586C38.8844 21.5972 38.7466 22.1606 38.4712 22.6489C38.1957 23.1373 37.7966 23.5176 37.2739 23.7899C36.7542 24.0623 36.125 24.1984 35.3863 24.1984H32.9682V22.5691H35.0576C35.4489 22.5691 35.7713 22.5018 36.0249 22.3672C36.2816 22.2295 36.4725 22.0401 36.5977 21.7991C36.7261 21.5549 36.7902 21.2748 36.7902 20.9586C36.7902 20.6393 36.7261 20.3607 36.5977 20.1228C36.4725 19.8818 36.2816 19.6955 36.0249 19.5641C35.7682 19.4295 35.4427 19.3622 35.0482 19.3622H33.6772V27.3162H31.6441Z" fill="#0B0B0B"></path><path d="M11.745 14.2588V4.64263H15.5952C16.3026 4.64263 16.8927 4.74749 17.3653 4.95722C17.838 5.16695 18.1933 5.45806 18.4312 5.83056C18.6691 6.19993 18.788 6.62565 18.788 7.10771C18.788 7.48334 18.7129 7.81358 18.5627 8.09844C18.4124 8.38016 18.2058 8.6118 17.9429 8.79335C17.6831 8.97178 17.3857 9.09855 17.0508 9.17368V9.26759C17.417 9.28324 17.7598 9.38654 18.079 9.57748C18.4015 9.76843 18.6628 10.0361 18.8632 10.3804C19.0635 10.7216 19.1637 11.1285 19.1637 11.6012C19.1637 12.1114 19.0369 12.5669 18.7834 12.9676C18.5329 13.3651 18.162 13.6797 17.6705 13.9113C17.1791 14.143 16.5734 14.2588 15.8534 14.2588H11.745ZM13.7781 12.5966H15.4355C16.0021 12.5966 16.4153 12.4886 16.6751 12.2726C16.9349 12.0535 17.0648 11.7624 17.0648 11.3993C17.0648 11.1332 17.0007 10.8985 16.8723 10.695C16.744 10.4915 16.5609 10.3319 16.323 10.2161C16.0882 10.1002 15.808 10.0423 15.4825 10.0423H13.7781V12.5966ZM13.7781 8.66658H15.2853C15.5639 8.66658 15.8112 8.61806 16.0272 8.52102C16.2463 8.42085 16.4184 8.27999 16.5436 8.09844C16.672 7.91688 16.7362 7.69933 16.7362 7.44578C16.7362 7.09832 16.6125 6.81816 16.3652 6.6053C16.1211 6.39244 15.7736 6.28601 15.3228 6.28601H13.7781V8.66658ZM22.5407 14.2588H20.3621L23.6817 4.64263H26.3018L29.6167 14.2588H27.438L25.0293 6.84007H24.9542L22.5407 14.2588ZM22.4046 10.479H27.5507V12.066H22.4046V10.479ZM37.1104 4.64263H39.1436V10.8875C39.1436 11.5887 38.9761 12.2022 38.6411 12.7281C38.3093 13.254 37.8445 13.664 37.2466 13.9583C36.6487 14.2494 35.9523 14.395 35.1572 14.395C34.3589 14.395 33.6609 14.2494 33.063 13.9583C32.4651 13.664 32.0003 13.254 31.6685 12.7281C31.3367 12.2022 31.1708 11.5887 31.1708 10.8875V4.64263H33.2039V10.7138C33.2039 11.08 33.2837 11.4056 33.4433 11.6904C33.6061 11.9753 33.8346 12.1991 34.1289 12.3619C34.4231 12.5246 34.7659 12.606 35.1572 12.606C35.5516 12.606 35.8943 12.5246 36.1855 12.3619C36.4797 12.1991 36.7066 11.9753 36.8663 11.6904C37.0291 11.4056 37.1104 11.08 37.1104 10.7138V4.64263Z" fill="#0B0B0B"></path><path d="M59.5693 7.59693V2.28467H72.85V14.6799H68.1627L59.5693 7.59693Z" fill="#124567"></path><path d="M57.8002 2.28467H44.5195V14.6799H49.8318L52.4879 12.0238V8.03961H55.144V9.36768H56.0294L57.8002 7.59693V2.28467Z" fill="#015277"></path><path d="M49.8318 16.4514H44.5195V28.8467H57.8002V24.0793H49.8318V16.4514Z" fill="#015D86"></path><path d="M68.2458 24.0793H61.3398V28.8467H72.8497V16.4514H68.2458V24.0793Z" fill="#2E88B0"></path></g><defs><clipPath id="clip0_4664_26233"><rect width="74.2963" height="31.4815" fill="white" transform="translate(0.444336)"></rect></clipPath></defs></svg>