<svg width="107" height="32" viewBox="0 0 107 32" fill="none" xmlns="http://www.w3.org/2000/svg"><g clip-path="url(#clip0_4664_26213)"><path d="M2.1307 27.866V18.2498H8.49765V19.9261H4.16381V22.2174H8.07507V23.8937H4.16381V27.866H2.1307ZM12.295 18.2498V27.866H10.2619V18.2498H12.295ZM22.4076 18.2498V27.866H20.6515L16.4679 21.8136H16.3975V27.866H14.3644V18.2498H16.1486L20.2993 24.2975H20.3838V18.2498H22.4076ZM26.1415 27.866H23.9628L27.2825 18.2498H29.9025L33.2174 27.866H31.0388L28.63 20.4472H28.5549L26.1415 27.866ZM26.0053 24.0862H31.1515V25.6732H26.0053V24.0862ZM42.8147 18.2498V27.866H41.0586L36.875 21.8136H36.8046V27.866H34.7715V18.2498H36.5558L40.7065 24.2975H40.791V18.2498H42.8147ZM44.7879 27.866V26.6593L49.5866 19.9261H44.7785V18.2498H52.1408V19.4565L47.3375 26.1897H52.1502V27.866H44.7879ZM54.1069 27.866V18.2498H60.5866V19.9261H56.14V22.2174H60.2532V23.8937H56.14V26.1897H60.6054V27.866H54.1069ZM70.6428 18.2498V27.866H68.8868L64.7032 21.8136H64.6327V27.866H62.5996V18.2498H64.3839L68.5346 24.2975H68.6191V18.2498H70.6428Z" fill="#0B0B0B"></path><path d="M44.0262 14.8892V5.273H47.8764C48.5839 5.273 49.1739 5.37786 49.6466 5.58759C50.1193 5.79732 50.4745 6.08843 50.7124 6.46093C50.9503 6.8303 51.0693 7.25602 51.0693 7.73808C51.0693 8.11371 50.9942 8.44395 50.8439 8.72881C50.6937 9.01053 50.4871 9.24217 50.2241 9.42372C49.9643 9.60215 49.6669 9.72893 49.332 9.80405V9.89796C49.6982 9.91361 50.041 10.0169 50.3603 10.2079C50.6827 10.3988 50.9441 10.6664 51.1444 11.0108C51.3448 11.352 51.4449 11.7589 51.4449 12.2316C51.4449 12.7418 51.3182 13.1973 51.0646 13.5979C50.8142 13.9955 50.4432 14.3101 49.9518 14.5417C49.4603 14.7733 48.8546 14.8892 48.1347 14.8892H44.0262ZM46.0593 13.227H47.7168C48.2834 13.227 48.6966 13.119 48.9564 12.903C49.2162 12.6839 49.3461 12.3928 49.3461 12.0297C49.3461 11.7636 49.2819 11.5288 49.1536 11.3254C49.0252 11.1219 48.8421 10.9622 48.6042 10.8464C48.3694 10.7306 48.0893 10.6727 47.7637 10.6727H46.0593V13.227ZM46.0593 9.29695H47.5665C47.8451 9.29695 48.0924 9.24843 48.3084 9.15139C48.5275 9.05122 48.6997 8.91036 48.8249 8.72881C48.9532 8.54725 49.0174 8.3297 49.0174 8.07615C49.0174 7.72869 48.8938 7.44853 48.6465 7.23567C48.4023 7.02281 48.0549 6.91639 47.6041 6.91639H46.0593V9.29695ZM54.822 14.8892H52.6433L55.963 5.273H58.583L61.8979 14.8892H59.7193L57.3106 7.47044H57.2354L54.822 14.8892ZM54.6858 11.1094H59.832V12.6964H54.6858V11.1094ZM69.3917 5.273H71.4248V11.5179C71.4248 12.219 71.2573 12.8326 70.9224 13.3585C70.5906 13.8843 70.1257 14.2944 69.5279 14.5887C68.93 14.8798 68.2335 15.0253 67.4384 15.0253C66.6402 15.0253 65.9422 14.8798 65.3443 14.5887C64.7464 14.2944 64.2815 13.8843 63.9497 13.3585C63.6179 12.8326 63.452 12.219 63.452 11.5179V5.273H65.4851V11.3441C65.4851 11.7104 65.565 12.0359 65.7246 12.3208C65.8874 12.6056 66.1159 12.8294 66.4101 12.9922C66.7044 13.155 67.0471 13.2364 67.4384 13.2364C67.8328 13.2364 68.1756 13.155 68.4667 12.9922C68.761 12.8294 68.9879 12.6056 69.1475 12.3208C69.3103 12.0359 69.3917 11.7104 69.3917 11.3441V5.273Z" fill="#0B0B0B"></path><path d="M91.1719 8.18698V2.90723H104.371V15.2267H99.7127L91.1719 8.18698Z" fill="#FD5C03"></path><path d="M89.4074 2.90723H76.208V15.2267H81.4878L84.1276 12.5868V8.62696H86.7675V9.9469H87.6475L89.4074 8.18698V2.90723Z" fill="#FE6E04"></path><path d="M81.4878 16.9861H76.208V29.3055H89.4074V24.5673H81.4878V16.9861Z" fill="#FE8E04"></path><path d="M99.7914 24.5673H92.9277V29.3055H104.367V16.9861H99.7914V24.5673Z" fill="#FEA703"></path></g><defs><clipPath id="clip0_4664_26213"><rect width="106.407" height="31.4815" fill="white" transform="translate(0.0371094)"></rect></clipPath></defs></svg>