<svg width="74" height="32" viewBox="0 0 74 32" fill="none" xmlns="http://www.w3.org/2000/svg"><g clip-path="url(#clip0_4664_26253)"><path d="M2.94515 27.4812V17.865H6.73903C7.46525 17.865 8.08504 17.9949 8.59841 18.2548C9.1149 18.5114 9.50775 18.8761 9.77695 19.3488C10.0493 19.8183 10.1854 20.3708 10.1854 21.0063C10.1854 21.6448 10.0477 22.1942 9.77225 22.6543C9.49679 23.1114 9.09768 23.4619 8.57493 23.7061C8.05531 23.9503 7.42612 24.0723 6.68738 24.0723H4.14717V22.4384H6.3587C6.74686 22.4384 7.06927 22.3851 7.32595 22.2787C7.58264 22.1723 7.77358 22.0126 7.89879 21.7998C8.02713 21.5869 8.0913 21.3224 8.0913 21.0063C8.0913 20.687 8.02713 20.4178 7.89879 20.1986C7.77358 19.9795 7.58107 19.8136 7.32126 19.7009C7.06458 19.5851 6.7406 19.5272 6.34931 19.5272H4.97826V27.4812H2.94515ZM8.13826 23.1051L10.5282 27.4812H8.28381L5.94551 23.1051H8.13826ZM11.49 27.4812V17.865H17.9697V19.5413H13.5231V21.8326H17.6363V23.5089H13.5231V25.8049H17.9884V27.4812H11.49ZM27.497 17.865V27.4812H25.741L21.5574 21.4288H21.4869V27.4812H19.4538V17.865H21.2381L25.3888 23.9127H25.4733V17.865H27.497ZM28.6783 19.5413V17.865H36.576V19.5413H33.632V27.4812H31.6224V19.5413H28.6783Z" fill="#0B0B0B"></path><path d="M9.36703 14.259V4.64287H13.2173C13.9247 4.64287 14.5147 4.74774 14.9874 4.95746C15.4601 5.16719 15.8154 5.45831 16.0533 5.83081C16.2912 6.20018 16.4101 6.62589 16.4101 7.10795C16.4101 7.48358 16.335 7.81383 16.1847 8.09868C16.0345 8.3804 15.8279 8.61204 15.5649 8.7936C15.3051 8.97202 15.0078 9.0988 14.6728 9.17392V9.26783C15.0391 9.28348 15.3818 9.38678 15.7011 9.57773C16.0235 9.76867 16.2849 10.0363 16.4852 10.3806C16.6856 10.7218 16.7857 11.1288 16.7857 11.6014C16.7857 12.1117 16.659 12.5671 16.4054 12.9678C16.155 13.3653 15.7841 13.6799 15.2926 13.9116C14.8012 14.1432 14.1955 14.259 13.4755 14.259H9.36703ZM11.4001 12.5969H13.0576C13.6242 12.5969 14.0374 12.4889 14.2972 12.2729C14.557 12.0538 14.6869 11.7627 14.6869 11.3995C14.6869 11.1335 14.6227 10.8987 14.4944 10.6952C14.3661 10.4918 14.1829 10.3321 13.945 10.2163C13.7103 10.1005 13.4301 10.0426 13.1046 10.0426H11.4001V12.5969ZM11.4001 8.66682H12.9074C13.1859 8.66682 13.4332 8.6183 13.6492 8.52127C13.8683 8.4211 14.0405 8.28024 14.1657 8.09868C14.2941 7.91712 14.3582 7.69957 14.3582 7.44602C14.3582 7.09856 14.2346 6.8184 13.9873 6.60555C13.7431 6.39269 13.3957 6.28626 12.9449 6.28626H11.4001V8.66682ZM20.1628 14.259H17.9842L21.3038 4.64287H23.9238L27.2388 14.259H25.0601L22.6514 6.84032H22.5762L20.1628 14.259ZM20.0266 10.4792H25.1728V12.0663H20.0266V10.4792ZM34.7325 4.64287H36.7656V10.8877C36.7656 11.5889 36.5982 12.2025 36.2632 12.7283C35.9314 13.2542 35.4666 13.6643 34.8687 13.9585C34.2708 14.2496 33.5743 14.3952 32.7792 14.3952C31.981 14.3952 31.283 14.2496 30.6851 13.9585C30.0872 13.6643 29.6224 13.2542 29.2906 12.7283C28.9588 12.2025 28.7928 11.5889 28.7928 10.8877V4.64287H30.826V10.714C30.826 11.0803 30.9058 11.4058 31.0654 11.6907C31.2282 11.9755 31.4567 12.1993 31.7509 12.3621C32.0452 12.5249 32.388 12.6063 32.7792 12.6063C33.1736 12.6063 33.5164 12.5249 33.8075 12.3621C34.1018 12.1993 34.3287 11.9755 34.4884 11.6907C34.6511 11.4058 34.7325 11.0803 34.7325 10.714V4.64287Z" fill="#0B0B0B"></path><path d="M57.7842 7.67434V2.29517H71.2321V14.8466H66.4858L57.7842 7.67434Z" fill="#EE4FC5"></path><path d="M55.9929 2.29517H42.5449V14.8466H47.9241L50.6137 12.157V8.12261H53.3033V9.4674H54.1998L55.9929 7.67434V2.29517Z" fill="#FE5FD5"></path><path d="M47.9241 16.6401H42.5449V29.1915H55.9929V24.3641H47.9241V16.6401Z" fill="#FC93E8"></path><path d="M66.575 24.3641H59.582V29.1915H71.2369V16.6401H66.575V24.3641Z" fill="#FEC0FF"></path></g><defs><clipPath id="clip0_4664_26253"><rect width="72.4074" height="31.4815" fill="white" transform="translate(0.851562)"></rect></clipPath></defs></svg>