<svg width="111" height="32" viewBox="0 0 111 32" fill="none" xmlns="http://www.w3.org/2000/svg"><g clip-path="url(#clip0_4664_26193)"><path d="M6.64791 18.2496H8.65754V24.9546C8.65754 25.5744 8.51825 26.1128 8.23965 26.5698C7.96419 27.0268 7.58073 27.379 7.08928 27.6263C6.59783 27.8735 6.02656 27.9972 5.37546 27.9972C4.79637 27.9972 4.27048 27.8955 3.79781 27.692C3.32827 27.4854 2.95577 27.1724 2.68031 26.7529C2.40485 26.3303 2.26868 25.7998 2.27181 25.1612H4.29552C4.30178 25.4147 4.35343 25.6323 4.45047 25.8138C4.55064 25.9923 4.68681 26.13 4.85897 26.227C5.03427 26.3209 5.24086 26.3679 5.47876 26.3679C5.72918 26.3679 5.94048 26.3147 6.11264 26.2082C6.28793 26.0987 6.42097 25.939 6.51175 25.7293C6.60253 25.5196 6.64791 25.2613 6.64791 24.9546V18.2496ZM19.043 23.0576C19.043 24.1063 18.8442 24.9984 18.4467 25.734C18.0523 26.4696 17.5139 27.0315 16.8315 27.4197C16.1522 27.8047 15.3884 27.9972 14.5401 27.9972C13.6856 27.9972 12.9186 27.8031 12.2394 27.415C11.5601 27.0268 11.0233 26.4649 10.6289 25.7293C10.2344 24.9937 10.0372 24.1031 10.0372 23.0576C10.0372 22.009 10.2344 21.1169 10.6289 20.3813C11.0233 19.6457 11.5601 19.0853 12.2394 18.7003C12.9186 18.3122 13.6856 18.1181 14.5401 18.1181C15.3884 18.1181 16.1522 18.3122 16.8315 18.7003C17.5139 19.0853 18.0523 19.6457 18.4467 20.3813C18.8442 21.1169 19.043 22.009 19.043 23.0576ZM16.9817 23.0576C16.9817 22.3784 16.88 21.8055 16.6765 21.3391C16.4762 20.8727 16.1929 20.519 15.8267 20.278C15.4604 20.0369 15.0316 19.9164 14.5401 19.9164C14.0487 19.9164 13.6198 20.0369 13.2536 20.278C12.8873 20.519 12.6025 20.8727 12.399 21.3391C12.1987 21.8055 12.0985 22.3784 12.0985 23.0576C12.0985 23.7369 12.1987 24.3097 12.399 24.7762C12.6025 25.2426 12.8873 25.5963 13.2536 25.8373C13.6198 26.0783 14.0487 26.1989 14.5401 26.1989C15.0316 26.1989 15.4604 26.0783 15.8267 25.8373C16.1929 25.5963 16.4762 25.2426 16.6765 24.7762C16.88 24.3097 16.9817 23.7369 16.9817 23.0576ZM20.4168 27.8657V18.2496H24.267C24.9745 18.2496 25.5645 18.3544 26.0372 18.5642C26.5099 18.7739 26.8652 19.065 27.1031 19.4375C27.341 19.8069 27.4599 20.2326 27.4599 20.7146C27.4599 21.0903 27.3848 21.4205 27.2345 21.7054C27.0843 21.9871 26.8777 22.2187 26.6147 22.4003C26.3549 22.5787 26.0575 22.7055 25.7226 22.7806V22.8745C26.0889 22.8902 26.4316 22.9935 26.7509 23.1844C27.0733 23.3754 27.3347 23.643 27.535 23.9873C27.7354 24.3285 27.8355 24.7355 27.8355 25.2081C27.8355 25.7184 27.7088 26.1738 27.4552 26.5745C27.2048 26.972 26.8339 27.2866 26.3424 27.5183C25.851 27.7499 25.2452 27.8657 24.5253 27.8657H20.4168ZM22.4499 26.2036H24.1074C24.674 26.2036 25.0872 26.0956 25.347 25.8796C25.6068 25.6605 25.7367 25.3693 25.7367 25.0062C25.7367 24.7402 25.6725 24.5054 25.5442 24.3019C25.4158 24.0985 25.2327 23.9388 24.9948 23.823C24.7601 23.7072 24.4799 23.6493 24.1544 23.6493H22.4499V26.2036ZM22.4499 22.2735H23.9571C24.2357 22.2735 24.483 22.225 24.699 22.128C24.9181 22.0278 25.0903 21.8869 25.2155 21.7054C25.3438 21.5238 25.408 21.3063 25.408 21.0527C25.408 20.7053 25.2844 20.4251 25.0371 20.2122C24.7929 19.9994 24.4455 19.8929 23.9947 19.8929H22.4499V22.2735ZM29.0262 27.8657V18.2496H35.3932V19.9258H31.0593V22.2172H34.9706V23.8934H31.0593V27.8657H29.0262ZM38.6616 18.2496V27.8657H36.6285V18.2496H38.6616ZM48.2453 18.2496V27.8657H46.4892L42.3057 21.8134H42.2352V27.8657H40.2021V18.2496H41.9864L46.1371 24.2972H46.2216V18.2496H48.2453ZM53.2017 27.8657H49.7929V18.2496H53.2299C54.1972 18.2496 55.0298 18.4421 55.7279 18.8271C56.4259 19.209 56.9627 19.7583 57.3384 20.4752C57.7171 21.192 57.9065 22.0497 57.9065 23.0483C57.9065 24.0499 57.7171 24.9108 57.3384 25.6307C56.9627 26.3507 56.4228 26.9032 55.7185 27.2882C55.0173 27.6732 54.1784 27.8657 53.2017 27.8657ZM51.826 26.1237H53.1172C53.7182 26.1237 54.2238 26.0173 54.6338 25.8044C55.047 25.5885 55.3569 25.2551 55.5635 24.8043C55.7732 24.3504 55.8781 23.7651 55.8781 23.0483C55.8781 22.3377 55.7732 21.757 55.5635 21.3063C55.3569 20.8555 55.0486 20.5237 54.6385 20.3108C54.2285 20.098 53.7229 19.9916 53.1219 19.9916H51.826V26.1237ZM59.2803 27.8657V18.2496H65.76V19.9258H61.3134V22.2172H65.4266V23.8934H61.3134V26.1895H65.7788V27.8657H59.2803ZM67.2441 27.8657V18.2496H71.038C71.7642 18.2496 72.384 18.3795 72.8974 18.6393C73.4139 18.896 73.8067 19.2606 74.0759 19.7333C74.3483 20.2028 74.4844 20.7553 74.4844 21.3908C74.4844 22.0294 74.3467 22.5787 74.0712 23.0389C73.7958 23.4959 73.3967 23.8465 72.8739 24.0906C72.3543 24.3348 71.7251 24.4569 70.9864 24.4569H68.4462V22.8229H70.6577C71.0458 22.8229 71.3683 22.7697 71.6249 22.6632C71.8816 22.5568 72.0726 22.3972 72.1978 22.1843C72.3261 21.9714 72.3903 21.7069 72.3903 21.3908C72.3903 21.0715 72.3261 20.8023 72.1978 20.5832C72.0726 20.3641 71.8801 20.1981 71.6202 20.0855C71.3636 19.9696 71.0396 19.9117 70.6483 19.9117H69.2772V27.8657H67.2441ZM72.4372 23.4896L74.8272 27.8657H72.5828L70.2445 23.4896H72.4372Z" fill="#0B0B0B"></path><path d="M47.2899 14.8889V5.27275H51.1401C51.8475 5.27275 52.4376 5.37762 52.9103 5.58735C53.3829 5.79707 53.7382 6.08819 53.9761 6.46069C54.214 6.83006 54.333 7.25578 54.333 7.73784C54.333 8.11347 54.2578 8.44371 54.1076 8.72856C53.9573 9.01029 53.7507 9.24193 53.4878 9.42348C53.228 9.60191 52.9306 9.72868 52.5957 9.80381V9.89772C52.9619 9.91337 53.3047 10.0167 53.624 10.2076C53.9464 10.3986 54.2078 10.6662 54.4081 11.0105C54.6084 11.3517 54.7086 11.7587 54.7086 12.2313C54.7086 12.7416 54.5818 13.197 54.3283 13.5977C54.0779 13.9952 53.7069 14.3098 53.2155 14.5415C52.724 14.7731 52.1183 14.8889 51.3983 14.8889H47.2899ZM49.323 13.2267H50.9805C51.547 13.2267 51.9602 13.1188 52.22 12.9028C52.4799 12.6836 52.6098 12.3925 52.6098 12.0294C52.6098 11.7634 52.5456 11.5286 52.4172 11.3251C52.2889 11.1216 52.1058 10.962 51.8679 10.8462C51.6331 10.7304 51.353 10.6725 51.0274 10.6725H49.323V13.2267ZM49.323 9.29671H50.8302C51.1088 9.29671 51.3561 9.24819 51.5721 9.15115C51.7912 9.05098 51.9634 8.91012 52.0886 8.72856C52.2169 8.54701 52.2811 8.32945 52.2811 8.0759C52.2811 7.72844 52.1574 7.44829 51.9101 7.23543C51.666 7.02257 51.3185 6.91614 50.8678 6.91614H49.323V9.29671ZM58.0857 14.8889H55.907L59.2266 5.27275H61.8467L65.1616 14.8889H62.983L60.5742 7.4702H60.4991L58.0857 14.8889ZM57.9495 11.1091H63.0956V12.6962H57.9495V11.1091ZM72.6554 5.27275H74.6885V11.5176C74.6885 12.2188 74.521 12.8323 74.1861 13.3582C73.8543 13.8841 73.3894 14.2942 72.7915 14.5884C72.1937 14.8795 71.4972 15.0251 70.7021 15.0251C69.9039 15.0251 69.2058 14.8795 68.6079 14.5884C68.0101 14.2942 67.5452 13.8841 67.2134 13.3582C66.8816 12.8323 66.7157 12.2188 66.7157 11.5176V5.27275H68.7488V11.3439C68.7488 11.7101 68.8286 12.0357 68.9883 12.3205C69.151 12.6054 69.3796 12.8292 69.6738 12.992C69.968 13.1548 70.3108 13.2361 70.7021 13.2361C71.0965 13.2361 71.4393 13.1548 71.7304 12.992C72.0246 12.8292 72.2516 12.6054 72.4112 12.3205C72.574 12.0357 72.6554 11.7101 72.6554 11.3439V5.27275Z" fill="#0B0B0B"></path><path d="M95.1855 8.18567V2.90601H108.385V15.2252H103.726L95.1855 8.18567Z" fill="#0B590D"></path><path d="M93.4257 2.90601H80.2266V15.2252H85.5062L88.1461 12.5854V8.62564H90.7859V9.94555H91.6658L93.4257 8.18567V2.90601Z" fill="#0D8612"></path><path d="M85.5062 16.9854H80.2266V29.3046H93.4257V24.5664H85.5062V16.9854Z" fill="#13B218"></path><path d="M103.81 24.5664H96.9463V29.3046H108.386V16.9854H103.81V24.5664Z" fill="#72D175"></path></g><defs><clipPath id="clip0_4664_26193"><rect width="110.815" height="31.4815" fill="white" transform="translate(0.0742188)"></rect></clipPath></defs></svg>