<svg width="124" height="32" viewBox="0 0 124 32" fill="none" xmlns="http://www.w3.org/2000/svg"><g clip-path="url(#clip0_4664_26203)"><path d="M5.64427 18.2999V27.916H3.61117V18.2999H5.64427ZM7.18479 18.2999H9.69212L12.3403 24.7607H12.453L15.1012 18.2999H17.6086V27.916H15.6365V21.6571H15.5567L13.0681 27.8691H11.7252L9.23667 21.6336H9.15685V27.916H7.18479V18.2999ZM19.1514 18.2999H21.6588L24.307 24.7607H24.4196L27.0678 18.2999H29.5752V27.916H27.6031V21.6571H27.5233L25.0347 27.8691H23.6919L21.2033 21.6336H21.1235V27.916H19.1514V18.2999ZM39.9548 23.1079C39.9548 24.1566 39.756 25.0487 39.3585 25.7843C38.964 26.5199 38.4256 27.0818 37.7432 27.47C37.064 27.855 36.3002 28.0475 35.4519 28.0475C34.5973 28.0475 33.8304 27.8534 33.1511 27.4653C32.4719 27.0771 31.935 26.5152 31.5406 25.7796C31.1462 25.044 30.949 24.1534 30.949 23.1079C30.949 22.0593 31.1462 21.1672 31.5406 20.4316C31.935 19.696 32.4719 19.1356 33.1511 18.7506C33.8304 18.3625 34.5973 18.1684 35.4519 18.1684C36.3002 18.1684 37.064 18.3625 37.7432 18.7506C38.4256 19.1356 38.964 19.696 39.3585 20.4316C39.756 21.1672 39.9548 22.0593 39.9548 23.1079ZM37.8935 23.1079C37.8935 22.4287 37.7918 21.8558 37.5883 21.3894C37.388 20.923 37.1047 20.5693 36.7384 20.3283C36.3722 20.0872 35.9433 19.9667 35.4519 19.9667C34.9604 19.9667 34.5316 20.0872 34.1653 20.3283C33.7991 20.5693 33.5143 20.923 33.3108 21.3894C33.1105 21.8558 33.0103 22.4287 33.0103 23.1079C33.0103 23.7872 33.1105 24.36 33.3108 24.8264C33.5143 25.2929 33.7991 25.6466 34.1653 25.8876C34.5316 26.1286 34.9604 26.2492 35.4519 26.2492C35.9433 26.2492 36.3722 26.1286 36.7384 25.8876C37.1047 25.6466 37.388 25.2929 37.5883 24.8264C37.7918 24.36 37.8935 23.7872 37.8935 23.1079ZM41.3286 27.916V18.2999H47.6955V19.9761H43.3617V22.2675H47.273V23.9437H43.3617V27.916H41.3286ZM50.964 18.2999V27.916H48.9308V18.2999H50.964ZM60.5477 18.2999V27.916H58.7916L54.608 21.8637H54.5376V27.916H52.5045V18.2999H54.2887L58.4394 24.3475H58.524V18.2999H60.5477ZM65.5041 27.916H62.0952V18.2999H65.5323C66.4995 18.2999 67.3322 18.4924 68.0302 18.8774C68.7282 19.2593 69.2651 19.8086 69.6407 20.5255C70.0195 21.2423 70.2089 22.1 70.2089 23.0985C70.2089 24.1002 70.0195 24.961 69.6407 25.681C69.2651 26.401 68.7251 26.9535 68.0208 27.3385C67.3196 27.7235 66.4807 27.916 65.5041 27.916ZM64.1283 26.174H65.4196C66.0206 26.174 66.5261 26.0676 66.9362 25.8547C67.3494 25.6388 67.6593 25.3054 67.8659 24.8546C68.0756 24.4007 68.1805 23.8154 68.1805 23.0985C68.1805 22.388 68.0756 21.8073 67.8659 21.3566C67.6593 20.9058 67.3509 20.574 66.9409 20.3611C66.5308 20.1483 66.0253 20.0418 65.4243 20.0418H64.1283V26.174ZM71.5827 27.916V18.2999H78.0623V19.9761H73.6158V22.2675H77.7289V23.9437H73.6158V26.2398H78.0811V27.916H71.5827ZM79.5465 27.916V18.2999H83.3404C84.0666 18.2999 84.6864 18.4298 85.1997 18.6896C85.7162 18.9463 86.1091 19.3109 86.3783 19.7836C86.6506 20.2531 86.7868 20.8056 86.7868 21.4411C86.7868 22.0796 86.6491 22.629 86.3736 23.0892C86.0981 23.5462 85.699 23.8968 85.1763 24.1409C84.6566 24.3851 84.0275 24.5072 83.2887 24.5072H80.7485V22.8732H82.96C83.3482 22.8732 83.6706 22.82 83.9273 22.7135C84.184 22.6071 84.3749 22.4475 84.5001 22.2346C84.6285 22.0217 84.6926 21.7572 84.6926 21.4411C84.6926 21.1218 84.6285 20.8526 84.5001 20.6335C84.3749 20.4143 84.1824 20.2484 83.9226 20.1358C83.6659 20.0199 83.3419 19.962 82.9506 19.962H81.5796V27.916H79.5465ZM84.7396 23.5399L87.1295 27.916H84.8851L82.5468 23.5399H84.7396Z" fill="#0B0B0B"></path><path d="M60.1873 14.8887V5.27251H64.0376C64.745 5.27251 65.3351 5.37737 65.8077 5.5871C66.2804 5.79683 66.6357 6.08794 66.8736 6.46044C67.1115 6.82982 67.2304 7.25553 67.2304 7.73759C67.2304 8.11322 67.1553 8.44346 67.0051 8.72832C66.8548 9.01004 66.6482 9.24168 66.3853 9.42324C66.1254 9.60166 65.8281 9.72844 65.4931 9.80356V9.89747C65.8594 9.91312 66.2021 10.0164 66.5214 10.2074C66.8438 10.3983 67.1052 10.6659 67.3056 11.0103C67.5059 11.3515 67.6061 11.7584 67.6061 12.2311C67.6061 12.7413 67.4793 13.1968 67.2257 13.5974C66.9753 13.995 66.6044 14.3096 66.1129 14.5412C65.6215 14.7729 65.0158 14.8887 64.2958 14.8887H60.1873ZM62.2204 13.2265H63.8779C64.4445 13.2265 64.8577 13.1185 65.1175 12.9025C65.3773 12.6834 65.5072 12.3923 65.5072 12.0292C65.5072 11.7631 65.4431 11.5283 65.3147 11.3249C65.1864 11.1214 65.0032 10.9618 64.7653 10.8459C64.5306 10.7301 64.2504 10.6722 63.9249 10.6722H62.2204V13.2265ZM62.2204 9.29646H63.7277C64.0063 9.29646 64.2536 9.24794 64.4695 9.1509C64.6887 9.05074 64.8608 8.90987 64.986 8.72832C65.1144 8.54676 65.1785 8.32921 65.1785 8.07566C65.1785 7.7282 65.0549 7.44804 64.8076 7.23518C64.5634 7.02233 64.216 6.9159 63.7652 6.9159H62.2204V9.29646ZM70.9831 14.8887H68.8045L72.1241 5.27251H74.7441L78.0591 14.8887H75.8804L73.4717 7.46995H73.3966L70.9831 14.8887ZM70.847 11.1089H75.9931V12.6959H70.847V11.1089ZM85.5528 5.27251H87.5859V11.5174C87.5859 12.2186 87.4185 12.8321 87.0835 13.358C86.7517 13.8839 86.2869 14.2939 85.689 14.5882C85.0911 14.8793 84.3946 15.0248 83.5995 15.0248C82.8013 15.0248 82.1033 14.8793 81.5054 14.5882C80.9075 14.2939 80.4427 13.8839 80.1109 13.358C79.7791 12.8321 79.6132 12.2186 79.6132 11.5174V5.27251H81.6463V11.3437C81.6463 11.7099 81.7261 12.0354 81.8857 12.3203C82.0485 12.6051 82.277 12.829 82.5713 12.9917C82.8655 13.1545 83.2083 13.2359 83.5995 13.2359C83.994 13.2359 84.3367 13.1545 84.6278 12.9917C84.9221 12.829 85.149 12.6051 85.3087 12.3203C85.4714 12.0354 85.5528 11.7099 85.5528 11.3437V5.27251Z" fill="#0B0B0B"></path><path d="M107.896 8.2107V2.91064H121.147V15.2774H116.47L107.896 8.2107Z" fill="#FFA000"></path><path d="M106.129 2.91064H92.8789V15.2774H98.179L100.829 12.6274V8.65237H103.479V9.97738H104.362L106.129 8.2107V2.91064Z" fill="#FFB300"></path><path d="M98.179 17.0435H92.8789V29.4102H106.129V24.6538H98.179V17.0435Z" fill="#FFCA28"></path><path d="M116.557 24.6538H109.667V29.4102H121.15V17.0435H116.557V24.6538Z" fill="#FFD54F"></path></g><defs><clipPath id="clip0_4664_26203"><rect width="122.148" height="31.4815" fill="white" transform="translate(0.888672)"></rect></clipPath></defs></svg>