<svg width="67" height="32" viewBox="0 0 67 32" fill="none" xmlns="http://www.w3.org/2000/svg"><g clip-path="url(#clip0_4664_26243)"><path d="M3.59164 27.595V17.9788H7.38552C8.11487 17.9788 8.73622 18.1181 9.24959 18.3967C9.76295 18.6722 10.1542 19.0556 10.4234 19.5471C10.6958 20.0354 10.8319 20.5988 10.8319 21.2374C10.8319 21.876 10.6942 22.4394 10.4187 22.9278C10.1433 23.4161 9.74417 23.7964 9.22141 24.0687C8.70179 24.3411 8.07261 24.4772 7.33387 24.4772H4.91574V22.8479H7.00519C7.39647 22.8479 7.71889 22.7806 7.97244 22.646C8.22912 22.5083 8.42007 22.3189 8.54528 22.0779C8.67362 21.8337 8.73779 21.5536 8.73779 21.2374C8.73779 20.9181 8.67362 20.6395 8.54528 20.4016C8.42007 20.1606 8.22912 19.9744 7.97244 19.8429C7.71576 19.7083 7.39021 19.641 6.9958 19.641H5.62474V27.595H3.59164ZM13.0962 27.595H10.9175L14.2372 17.9788H16.8572L20.1721 27.595H17.9935L15.5847 20.1763H15.5096L13.0962 27.595ZM12.96 23.8152H18.1062V25.4022H12.96V23.8152ZM20.1814 17.9788H22.4587L24.6515 22.1201H24.7454L26.9381 17.9788H29.2154L25.7079 24.1955V27.595H23.6889V24.1955L20.1814 17.9788Z" fill="#0B0B0B"></path><path d="M2.83676 14.2595V4.64336H6.68698C7.39442 4.64336 7.98447 4.74822 8.45714 4.95795C8.92981 5.16768 9.28509 5.45879 9.52299 5.83129C9.76089 6.20067 9.87984 6.62638 9.87984 7.10844C9.87984 7.48407 9.80472 7.81431 9.65446 8.09917C9.50421 8.38089 9.29761 8.61253 9.03467 8.79409C8.77486 8.97251 8.47749 9.09929 8.14255 9.17441V9.26832C8.50879 9.28397 8.85155 9.38727 9.17084 9.57822C9.49326 9.76916 9.75463 10.0368 9.95497 10.3811C10.1553 10.7223 10.2555 11.1293 10.2555 11.6019C10.2555 12.1122 10.1287 12.5676 9.87515 12.9683C9.62473 13.3658 9.25379 13.6804 8.76234 13.9121C8.27089 14.1437 7.66518 14.2595 6.94522 14.2595H2.83676ZM4.86986 12.5974H6.52733C7.09391 12.5974 7.50711 12.4894 7.76692 12.2734C8.02673 12.0543 8.15663 11.7631 8.15663 11.4C8.15663 11.134 8.09246 10.8992 7.96412 10.6957C7.83578 10.4923 7.65266 10.3326 7.41476 10.2168C7.17999 10.101 6.89983 10.0431 6.57429 10.0431H4.86986V12.5974ZM4.86986 8.66731H6.37708C6.65567 8.66731 6.90297 8.61879 7.11895 8.52175C7.33807 8.42159 7.51024 8.28072 7.63545 8.09917C7.76379 7.91761 7.82796 7.70006 7.82796 7.44651C7.82796 7.09905 7.70431 6.81889 7.45702 6.60603C7.21286 6.39318 6.8654 6.28675 6.41464 6.28675H4.86986V8.66731ZM13.2359 14.2595H11.0572L14.3769 4.64336H16.9969L20.3118 14.2595H18.1332L15.7244 6.8408H15.6493L13.2359 14.2595ZM13.0997 10.4797H18.2459V12.0668H13.0997V10.4797ZM27.4089 4.64336H29.442V10.8882C29.442 11.5894 29.2745 12.2029 28.9396 12.7288C28.6078 13.2547 28.143 13.6648 27.5451 13.959C26.9472 14.2501 26.2507 14.3957 25.4556 14.3957C24.6574 14.3957 23.9594 14.2501 23.3615 13.959C22.7636 13.6648 22.2988 13.2547 21.967 12.7288C21.6351 12.2029 21.4692 11.5894 21.4692 10.8882V4.64336H23.5023V10.7145C23.5023 11.0807 23.5822 11.4063 23.7418 11.6911C23.9046 11.976 24.1331 12.1998 24.4273 12.3626C24.7216 12.5254 25.0643 12.6067 25.4556 12.6067C25.85 12.6067 26.1928 12.5254 26.4839 12.3626C26.7782 12.1998 27.0051 11.976 27.1648 11.6911C27.3275 11.4063 27.4089 11.0807 27.4089 10.7145V4.64336Z" fill="#0B0B0B"></path><path d="M51 8.06848V2.67773H64.4769V15.2562H59.7203L51 8.06848Z" fill="#596E1F"></path><path d="M49.2015 2.67773H35.7246V15.2562H41.1154L43.8107 12.5608V8.51771H46.5061V9.8654H47.4046L49.2015 8.06848V2.67773Z" fill="#7E9C2B"></path><path d="M41.1154 17.0522H35.7246V29.6307H49.2015V24.7928H41.1154V17.0522Z" fill="#8BAB30"></path><path d="M59.8039 24.7928H52.7959V29.6307H64.4759V17.0522H59.8039V24.7928Z" fill="#97BA34"></path></g><defs><clipPath id="clip0_4664_26243"><rect width="66.1111" height="31.4815" fill="white" transform="translate(0.740234)"></rect></clipPath></defs></svg>