<svg width="16" height="16" viewBox="0 0 16 16" fill="none" xmlns="http://www.w3.org/2000/svg"><path d="M8.00037 1C6.8958 1 6.00037 1.89543 6.00037 3V5H5.00037V3C5.00037 1.34315 6.34351 0 8.00037 0C9.65722 0 11.0004 1.34315 11.0004 3V5H10.0004V3C10.0004 1.89543 9.10494 1 8.00037 1Z" fill="black"></path><path d="M5.00037 5H3.36159C2.6191 5 1.98833 5.54321 1.87819 6.27749L0.850438 13.1291C0.623711 14.6407 1.79436 16 3.32278 16H12.678C14.2064 16 15.3771 14.6407 15.1504 13.1291L14.1226 6.27749C14.0125 5.54321 13.3817 5 12.6392 5H11.0004V6.5C11.0004 6.77614 10.7765 7 10.5004 7C10.2242 7 10.0004 6.77614 10.0004 6.5V5H6.00037V6.5C6.00037 6.77614 5.77651 7 5.50037 7C5.22422 7 5.00037 6.77614 5.00037 6.5V5Z" fill="black"></path></svg>