<svg width="16" height="16" viewBox="0 0 16 16" fill="none" xmlns="http://www.w3.org/2000/svg"><path d="M8.00055 0C8.69004 0.000103367 9.84283 0.265341 10.9283 0.55957C12.0384 0.860485 13.1571 1.21501 13.815 1.42969C14.3639 1.6089 14.7792 2.09397 14.8589 2.69238C15.4554 7.16942 14.072 10.4866 12.3941 12.6816C11.5583 13.775 10.6503 14.5907 9.8775 15.1357C9.49135 15.408 9.13259 15.6167 8.82867 15.7598C8.54813 15.8918 8.24806 15.9999 8.00055 16C7.75292 16 7.45218 15.8919 7.17145 15.7598C6.86764 15.6167 6.50958 15.4079 6.12359 15.1357C5.35074 14.5907 4.44184 13.7751 3.60602 12.6816C1.92819 10.4866 0.54468 7.16936 1.14117 2.69238C1.22091 2.09402 1.63629 1.60894 2.18512 1.42969C2.843 1.21501 3.96174 0.860485 5.07184 0.55957C6.15755 0.265267 7.31107 0 8.00055 0ZM8.00055 5C7.17212 5 6.50055 5.67157 6.50055 6.5C6.50055 7.15311 6.91795 7.70912 7.50055 7.91504L7.11481 9.90527C7.05534 10.2136 7.29193 10.4999 7.60602 10.5H8.3941C8.70825 10.5 8.9448 10.2137 8.88531 9.90527L8.50055 7.91504C9.08302 7.70905 9.50055 7.15302 9.50055 6.5C9.50055 5.67171 8.82879 5.00022 8.00055 5Z" fill="black"></path></svg>