<svg width="147" height="32" viewBox="0 0 147 32" fill="none" xmlns="http://www.w3.org/2000/svg"><g clip-path="url(#clip0_4664_26183)"><path d="M4.46175 17.6214L6.78596 24.9274H6.87518L9.20409 17.6214H11.4579L8.14293 27.2375H5.5229L2.20326 17.6214H4.46175ZM13.012 27.2375V17.6214H19.4916V19.2976H15.0451V21.589H19.1582V23.2652H15.0451V25.5613H19.5104V27.2375H13.012ZM21.5047 27.2375V17.6214H25.2985C26.0248 17.6214 26.6445 17.7513 27.1579 18.0111C27.6744 18.2678 28.0672 18.6325 28.3364 19.1051C28.6088 19.5747 28.7449 20.1272 28.7449 20.7626C28.7449 21.4012 28.6072 21.9505 28.3318 22.4107C28.0563 22.8677 27.6572 23.2183 27.1344 23.4625C26.6148 23.7066 25.9856 23.8287 25.2469 23.8287H22.7067V22.1947H24.9182C25.3064 22.1947 25.6288 22.1415 25.8855 22.0351C26.1421 21.9286 26.3331 21.769 26.4583 21.5561C26.5866 21.3433 26.6508 21.0788 26.6508 20.7626C26.6508 20.4433 26.5866 20.1741 26.4583 19.955C26.3331 19.7359 26.1406 19.57 25.8808 19.4573C25.6241 19.3415 25.3001 19.2836 24.9088 19.2836H23.5378V27.2375H21.5047ZM26.6978 22.8614L29.0877 27.2375H26.8433L24.505 22.8614H26.6978ZM35.795 20.387C35.7574 20.0082 35.5962 19.714 35.3114 19.5042C35.0265 19.2945 34.6399 19.1896 34.1516 19.1896C33.8198 19.1896 33.5396 19.2366 33.3111 19.3305C33.0826 19.4213 32.9073 19.5481 32.7852 19.7108C32.6663 19.8736 32.6068 20.0583 32.6068 20.2649C32.6006 20.4371 32.6366 20.5873 32.7148 20.7157C32.7962 20.844 32.9073 20.9551 33.0482 21.049C33.189 21.1398 33.3518 21.2196 33.5365 21.2885C33.7212 21.3542 33.9184 21.4106 34.1281 21.4575L34.9921 21.6641C35.4115 21.758 35.7965 21.8832 36.1471 22.0398C36.4977 22.1963 36.8014 22.3888 37.058 22.6173C37.3147 22.8458 37.5135 23.115 37.6544 23.4249C37.7984 23.7348 37.8719 24.0901 37.875 24.4907C37.8719 25.0792 37.7217 25.5895 37.4243 26.0214C37.13 26.4503 36.7043 26.7837 36.1471 27.0216C35.5931 27.2563 34.9248 27.3737 34.1422 27.3737C33.3659 27.3737 32.6898 27.2548 32.1138 27.0169C31.541 26.779 31.0933 26.4268 30.7709 25.9604C30.4516 25.4909 30.2842 24.9102 30.2685 24.2184H32.2359C32.2578 24.5408 32.3501 24.81 32.5129 25.026C32.6788 25.2389 32.8995 25.4001 33.175 25.5096C33.4535 25.6161 33.7681 25.6693 34.1187 25.6693C34.4631 25.6693 34.762 25.6192 35.0155 25.519C35.2722 25.4189 35.471 25.2796 35.6119 25.1011C35.7527 24.9227 35.8232 24.7177 35.8232 24.486C35.8232 24.2701 35.759 24.0885 35.6306 23.9414C35.5054 23.7943 35.3207 23.6691 35.0766 23.5658C34.8356 23.4625 34.5397 23.3685 34.1892 23.284L33.1421 23.0211C32.3313 22.8239 31.6912 22.5156 31.2217 22.0961C30.7521 21.6766 30.5189 21.1116 30.5221 20.4011C30.5189 19.8188 30.6739 19.3102 30.9869 18.8751C31.3031 18.44 31.7366 18.1003 32.2875 17.8562C32.8385 17.612 33.4645 17.4899 34.1657 17.4899C34.8794 17.4899 35.5023 17.612 36.0344 17.8562C36.5697 18.1003 36.986 18.44 37.2834 18.8751C37.5808 19.3102 37.7342 19.8141 37.7436 20.387H35.795ZM41.6723 17.6214V27.2375H39.6392V17.6214H41.6723ZM52.2263 20.988H50.1697C50.1322 20.7219 50.0555 20.4856 49.9397 20.279C49.8238 20.0693 49.6752 19.8908 49.4936 19.7437C49.312 19.5966 49.1023 19.4839 48.8644 19.4056C48.6296 19.3274 48.3745 19.2883 48.0991 19.2883C47.6014 19.2883 47.1678 19.4119 46.7984 19.6592C46.4291 19.9033 46.1427 20.2602 45.9392 20.7297C45.7357 21.1961 45.634 21.7627 45.634 22.4295C45.634 23.115 45.7357 23.691 45.9392 24.1574C46.1458 24.6238 46.4338 24.9759 46.8031 25.2138C47.1725 25.4517 47.5998 25.5707 48.085 25.5707C48.3573 25.5707 48.6093 25.5347 48.8409 25.4627C49.0757 25.3907 49.2839 25.2858 49.4654 25.1481C49.647 25.0072 49.7972 24.8366 49.9162 24.6363C50.0383 24.436 50.1228 24.2075 50.1697 23.9508L52.2263 23.9602C52.1731 24.4015 52.0401 24.8272 51.8272 25.2373C51.6175 25.6442 51.3342 26.0089 50.9773 26.3313C50.6236 26.6506 50.201 26.9042 49.7096 27.092C49.2213 27.2767 48.6688 27.369 48.0521 27.369C47.1944 27.369 46.4275 27.1749 45.7514 26.7868C45.0784 26.3986 44.5462 25.8368 44.1549 25.1011C43.7668 24.3655 43.5727 23.475 43.5727 22.4295C43.5727 21.3808 43.7699 20.4887 44.1643 19.7531C44.5587 19.0175 45.094 18.4572 45.7702 18.0721C46.4463 17.684 47.2069 17.4899 48.0521 17.4899C48.6093 17.4899 49.1258 17.5682 49.6016 17.7247C50.0805 17.8812 50.5047 18.1097 50.874 18.4102C51.2434 18.7076 51.5439 19.0723 51.7756 19.5042C52.0103 19.9362 52.1606 20.4308 52.2263 20.988ZM54.0809 27.2375V17.6214H56.114V21.589H60.2413V17.6214H62.2697V27.2375H60.2413V23.2652H56.114V27.2375H54.0809ZM64.3426 27.2375V17.6214H70.8222V19.2976H66.3757V21.589H70.4889V23.2652H66.3757V25.5613H70.841V27.2375H64.3426ZM72.8353 27.2375V17.6214H76.6292C77.3554 17.6214 77.9752 17.7513 78.4885 18.0111C79.005 18.2678 79.3979 18.6325 79.6671 19.1051C79.9394 19.5747 80.0756 20.1272 80.0756 20.7626C80.0756 21.4012 79.9378 21.9505 79.6624 22.4107C79.3869 22.8677 78.9878 23.2183 78.4651 23.4625C77.9454 23.7066 77.3163 23.8287 76.5775 23.8287H74.0373V22.1947H76.2488C76.637 22.1947 76.9594 22.1415 77.2161 22.0351C77.4728 21.9286 77.6637 21.769 77.7889 21.5561C77.9173 21.3433 77.9814 21.0788 77.9814 20.7626C77.9814 20.4433 77.9173 20.1741 77.7889 19.955C77.6637 19.7359 77.4712 19.57 77.2114 19.4573C76.9547 19.3415 76.6307 19.2836 76.2394 19.2836H74.8684V27.2375H72.8353ZM78.0284 22.8614L80.4183 27.2375H78.1739L75.8356 22.8614H78.0284ZM87.8487 17.6214H89.8818V23.8663C89.8818 24.5674 89.7143 25.181 89.3794 25.7069C89.0476 26.2327 88.5827 26.6428 87.9849 26.937C87.387 27.2282 86.6905 27.3737 85.8954 27.3737C85.0972 27.3737 84.3992 27.2282 83.8013 26.937C83.2034 26.6428 82.7385 26.2327 82.4067 25.7069C82.0749 25.181 81.909 24.5674 81.909 23.8663V17.6214H83.9421V23.6925C83.9421 24.0588 84.022 24.3843 84.1816 24.6692C84.3444 24.954 84.5729 25.1778 84.8671 25.3406C85.1614 25.5034 85.5041 25.5848 85.8954 25.5848C86.2898 25.5848 86.6326 25.5034 86.9237 25.3406C87.218 25.1778 87.4449 24.954 87.6045 24.6692C87.7673 24.3843 87.8487 24.0588 87.8487 23.6925V17.6214ZM99.9944 17.6214V27.2375H98.2383L94.0547 21.1852H93.9843V27.2375H91.9512V17.6214H93.7355L97.8862 23.6691H97.9707V17.6214H99.9944ZM108.447 20.7297C108.381 20.5012 108.289 20.2993 108.17 20.124C108.051 19.9456 107.906 19.7954 107.733 19.6733C107.564 19.5481 107.37 19.4526 107.151 19.3869C106.935 19.3211 106.696 19.2883 106.433 19.2883C105.941 19.2883 105.509 19.4103 105.137 19.6545C104.768 19.8987 104.48 20.2539 104.273 20.7203C104.066 21.1836 103.963 21.7502 103.963 22.4201C103.963 23.09 104.065 23.6597 104.268 24.1292C104.472 24.5987 104.76 24.9572 105.132 25.2044C105.505 25.4486 105.945 25.5707 106.452 25.5707C106.912 25.5707 107.305 25.4893 107.63 25.3265C107.959 25.1606 108.209 24.9274 108.381 24.6269C108.557 24.3264 108.644 23.9711 108.644 23.5611L109.058 23.6221H106.578V22.0914H110.602V23.3028C110.602 24.148 110.424 24.8742 110.067 25.4815C109.71 26.0856 109.219 26.552 108.593 26.8807C107.967 27.2062 107.25 27.369 106.442 27.369C105.541 27.369 104.749 27.1702 104.066 26.7727C103.384 26.372 102.852 25.8039 102.47 25.0683C102.091 24.3295 101.902 23.4531 101.902 22.4389C101.902 21.6594 102.015 20.9645 102.24 20.3541C102.468 19.7406 102.788 19.221 103.198 18.7952C103.608 18.3695 104.085 18.0455 104.63 17.8233C105.175 17.601 105.765 17.4899 106.4 17.4899C106.945 17.4899 107.452 17.5697 107.921 17.7294C108.391 17.8859 108.807 18.1081 109.17 18.3961C109.537 18.6841 109.835 19.0269 110.067 19.4244C110.299 19.8188 110.447 20.2539 110.513 20.7297H108.447Z" fill="#0B0B0B"></path><path d="M83.5536 14.2595V4.64336H87.4038C88.1112 4.64336 88.7013 4.74822 89.1739 4.95795C89.6466 5.16768 90.0019 5.45879 90.2398 5.83129C90.4777 6.20067 90.5966 6.62638 90.5966 7.10844C90.5966 7.48407 90.5215 7.81431 90.3713 8.09917C90.221 8.38089 90.0144 8.61253 89.7515 8.79409C89.4917 8.97251 89.1943 9.09929 88.8593 9.17441V9.26832C89.2256 9.28397 89.5683 9.38727 89.8876 9.57822C90.2101 9.76916 90.4714 10.0368 90.6718 10.3811C90.8721 10.7223 90.9723 11.1293 90.9723 11.6019C90.9723 12.1122 90.8455 12.5676 90.5919 12.9683C90.3415 13.3658 89.9706 13.6804 89.4791 13.9121C88.9877 14.1437 88.382 14.2595 87.662 14.2595H83.5536ZM85.5867 12.5974H87.2441C87.8107 12.5974 88.2239 12.4894 88.4837 12.2734C88.7435 12.0543 88.8734 11.7631 88.8734 11.4C88.8734 11.134 88.8093 10.8992 88.6809 10.6957C88.5526 10.4923 88.3695 10.3326 88.1316 10.2168C87.8968 10.101 87.6166 10.0431 87.2911 10.0431H85.5867V12.5974ZM85.5867 8.66731H87.0939C87.3725 8.66731 87.6198 8.61879 87.8357 8.52175C88.0549 8.42159 88.227 8.28072 88.3522 8.09917C88.4806 7.91761 88.5448 7.70006 88.5448 7.44651C88.5448 7.09905 88.4211 6.81889 88.1738 6.60603C87.9297 6.39318 87.5822 6.28675 87.1314 6.28675H85.5867V8.66731ZM94.3493 14.2595H92.1707L95.4903 4.64336H98.1103L101.425 14.2595H99.2466L96.8379 6.8408H96.7628L94.3493 14.2595ZM94.2132 10.4797H99.3593V12.0668H94.2132V10.4797ZM108.919 4.64336H110.952V10.8882C110.952 11.5894 110.785 12.2029 110.45 12.7288C110.118 13.2547 109.653 13.6648 109.055 13.959C108.457 14.2501 107.761 14.3957 106.966 14.3957C106.168 14.3957 105.469 14.2501 104.872 13.959C104.274 13.6648 103.809 13.2547 103.477 12.7288C103.145 12.2029 102.979 11.5894 102.979 10.8882V4.64336H105.012V10.7145C105.012 11.0807 105.092 11.4063 105.252 11.6911C105.415 11.976 105.643 12.1998 105.937 12.3626C106.232 12.5254 106.574 12.6067 106.966 12.6067C107.36 12.6067 107.703 12.5254 107.994 12.3626C108.288 12.1998 108.515 11.976 108.675 11.6911C108.838 11.4063 108.919 11.0807 108.919 10.7145V4.64336Z" fill="#0B0B0B"></path><path d="M131.075 7.55822V2.27856H144.274V14.5978H139.616L131.075 7.55822Z" fill="#050563"></path><path d="M129.315 2.27856H116.116V14.5978H121.396L124.036 11.9579V7.9982H126.676V9.31811H127.555L129.315 7.55822V2.27856Z" fill="#00007C"></path><path d="M121.396 16.3572H116.116V28.6764H129.315V23.9382H121.396V16.3572Z" fill="#0000BA"></path><path d="M139.701 23.9382H132.838V28.6764H144.277V16.3572H139.701V23.9382Z" fill="#0000F8"></path></g><defs><clipPath id="clip0_4664_26183"><rect width="146.074" height="31.4815" fill="white"></rect></clipPath></defs></svg>