 <svg
                  width="40"
                  height="40"
                  viewBox="0 0 59 59"
                  fill="none"
                  xmlns="http://www.w3.org/2000/svg"
                >
                  <rect
                    opacity="0.25"
                    x="1.52247"
                    y="1.19874"
                    width="56.2584"
                    height="56.2584"
                    rx="28.1292"
                    stroke="white"
                    stroke-width="1.48048"
                  ></rect>
                  <path
                    fill-rule="evenodd"
                    clip-rule="evenodd"
                    d="M29.3715 25.5175L29.4133 26.2219L28.7179 26.1357C26.1869 25.805 23.9758 24.6838 22.0984 22.8006L21.1806 21.8662L20.9442 22.5562C20.4436 24.0944 20.7634 25.7188 21.8064 26.8113C22.3627 27.4151 22.2375 27.5013 21.278 27.1419C20.9442 27.0269 20.6522 26.9407 20.6243 26.9838C20.527 27.0844 20.8608 28.3926 21.125 28.9101C21.4865 29.6288 22.2236 30.3332 23.0302 30.7501L23.7116 31.0807L22.905 31.0951C22.1262 31.0951 22.0984 31.1095 22.1819 31.4114C22.46 32.3458 23.5586 33.3377 24.7824 33.7689L25.6446 34.0708L24.8936 34.5308C23.7811 35.1921 22.4739 35.5658 21.1667 35.5946C20.5409 35.6089 20.0264 35.6664 20.0264 35.7096C20.0264 35.8533 21.723 36.6583 22.7103 36.9746C25.6724 37.909 29.1908 37.5065 31.833 35.9108C33.7104 34.7752 35.5877 32.5183 36.4639 30.3332C36.9367 29.1688 37.4095 27.0413 37.4095 26.0207C37.4095 25.3594 37.4512 25.2732 38.23 24.4825C38.6889 24.0225 39.12 23.5194 39.2034 23.3756C39.3425 23.1025 39.3286 23.1025 38.6194 23.3469C37.4373 23.7781 37.2704 23.7206 37.8545 23.0737C38.2856 22.6137 38.8001 21.78 38.8001 21.5356C38.8001 21.4925 38.5915 21.5644 38.3551 21.6937C38.1048 21.8375 37.5486 22.0531 37.1314 22.1825L36.3804 22.4269L35.699 21.9525C35.3235 21.6937 34.7951 21.4062 34.5169 21.32C33.8077 21.1187 32.723 21.1475 32.0833 21.3775C30.345 22.0244 29.2464 23.6919 29.3715 25.5175Z"
                    fill="white"
                  ></path>
                </svg>